# AST/ASF file generated using VICON BodyLanguage
# -----------------------------------------------
:version 1.10
:name VICON
:units
  mass 1.0
  length 0.45
  angle deg
:documentation
   .ast/.asf automatically generated from VICON data using
   VICON BodyBuilder and BodyLanguage model FoxedUp or BRILLIANT.MOD
:root
   order TX TY TZ RX RY RZ
   axis XYZ
   position 0 0 0  
   orientation 0 0 0 
:bonedata
  begin
     id 1 
     name lhipjoint
     direction 0.722297 -0.617336 0.311742 
     length 2.6635 
     axis 0 0 0  XYZ
  end
  begin
     id 2 
     name lfemur
     direction 0.34202 -0.939693 0  
     length 7.39349  
     axis 0 0 20  XYZ
    dof rx ry rz
    limits (-160.0 20.0)
           (-70.0 70.0)
           (-60.0 70.0)
  end
  begin
     id 3 
     name ltibia
     direction 0.34202 -0.939693 0   
     length 7.36294   
     axis 0 0 20   XYZ
    dof rx
    limits (-10.0 170.0)
  end
  begin
     id 4 
     name lfoot
     direction 0.104879 -0.288152 0.951824   
     length 2.16981   
     axis -90 7.62852e-016 20   XYZ
    dof rx rz
    limits (-45.0 90.0)
           (-70.0 20.0)
  end
  begin
     id 5 
     name ltoes
     direction 1.53586e-011 -4.21895e-011 1   
     length 1.08218   
     axis -90 7.62852e-016 20   XYZ
    dof rx
    limits (-90.0 20.0)
  end
  begin
     id 6 
     name rhipjoint
     direction -0.75102 -0.589393 0.297631   
     length 2.78977  
     axis 0 0 0  XYZ 
  end
  begin
     id 7 
     name rfemur
     direction -0.34202 -0.939693 0   
     length 7.46076   
     axis 0 0 -20   XYZ
    dof rx ry rz
    limits (-160.0 20.0)
           (-70.0 70.0)
           (-70.0 60.0)
  end
  begin
     id 8 
     name rtibia
     direction -0.34202 -0.939693 0   
     length 7.31726   
     axis 0 0 -20   XYZ
    dof rx
    limits (-10.0 170.0)
 end
 begin
     id 9 
     name rfoot
     direction -0.107991 -0.296704 0.948844   
     length 2.09388  
     axis -90 -7.62852e-016 -20   XYZ
    dof rx rz
    limits (-45.0 90.0)
           (-20.0 70.0)
  end
  begin
     id 10 
     name rtoes
     direction -1.53559e-011 -4.21911e-011 1   
     length 1.04433   
     axis -90 -7.62852e-016 -20   XYZ
    dof rx
    limits (-90.0 20.0)
  end
  begin
     id 11 
     name lowerback
     direction 0.0165164 0.98272 0.184358   
     length 1.71896   
     axis 0 0 0   XYZ
    dof rx ry rz
    limits (-20.0 45.0)
           (-30.0 30.0)
           (-30.0 30.0)
  end
  begin
     id 12 
     name upperback
     direction -0.00887249 0.992297 0.123566   
     length 1.71504   
     axis 0 0 0   XYZ
    dof rx ry rz
    limits (-20.0 45.0)
           (-30.0 30.0)
           (-30.0 30.0)
  end
  begin
     id 13 
     name thorax
     direction -0.0157026 0.998908 0.0440032   
     length 1.77022   
     axis 0 0 0   XYZ
    dof rx ry rz
    limits (-20.0 45.0)
           (-30.0 30.0)
           (-30.0 30.0)
  end
  begin
     id 14 
     name lowerneck
     direction -0.0238856 0.998137 0.0561411   
     length 1.89341   
     axis 0 0 0   XYZ
    dof rx ry rz
    limits (-20.0 45.0)
           (-30.0 30.0)
           (-30.0 30.0)
  end
  begin
     id 15 
     name upperneck
     direction 0.0276574 0.952253 -0.304056   
     length 1.86999   
     axis 0 0 0   XYZ
    dof rx ry rz
    limits (-20.0 45.0)
           (-30.0 30.0)
           (-30.0 30.0)
  end
  begin
     id 16
     name head
     direction 0.00800083 0.994258 -0.106712  
     length 1.91492  
     axis 0 0 0   XYZ
    dof rx ry rz
    limits (-20.0 45.0)
           (-30.0 30.0)
           (-30.0 30.0)
  end
  begin
     id 17 
     name lclavicle
     direction 0.97203 0.225407 0.06595  
     length 3.34889  
     axis 0 0 0   XYZ
    dof ry rz
    limits (-20.0 10.0)
           (0.0 20.0)
  end
  begin
     id 18 
     name lhumerus
     direction 1 -4.48973e-011 2.20267e-027   
     length 4.85645   
     axis 180 -30 -90   XYZ
    dof rx ry rz
    limits (-60.0 90.0)
           (-90.0 90.0)
           (-90.0 90.0)
  end
  begin
     id 19
     name lradius
     direction 1 -4.4897e-011 4.60472e-027   
     length 2.79874   
     axis 180 -30 -90   XYZ
    dof rx
    limits (-10.0 170.0)
  end
  begin
     id 20
     name lwrist
     direction 1 -4.48952e-011 1.14928e-026   
     length 1.39937   
     axis -6.29373e-015 90 90   XYZ
    dof ry
    limits (-180.0 0.0)
 end
  begin
     id 21 
     name lhand
     direction 1 -4.48967e-011 2.29886e-026   
     length 0.573398   
     axis -1.46689e-014 90 90   XYZ
    dof rx rz
    limits (-90.0 90.0)
           (-45.0 45.0)
  end
  begin
     id 22 
     name lfingers
     direction 1 -4.48955e-011 4.59726e-026   
     length 0.462289   
     axis -2.93383e-014 90 90   XYZ
    dof rx
    limits (0.0 90.0)
  end
  begin
     id 23
     name lthumb
     direction 0.707107 -6.34866e-011 0.707107   
     length 0.663757   
     axis -90 45 5.69224e-014   XYZ
    dof rx rz
    limits (-45.0 45.0)
           (-45.0 45.0)
  end
  begin
     id 24 
     name rclavicle
     direction -0.981571 0.157346 0.108443   
     length 3.35257  
     axis 0 0 0   XYZ 
    dof ry rz
    limits (-10.0 20.0)
           (-20.0 0.0)
  end
  begin
     id 25 
     name rhumerus
     direction -1 -4.48967e-011 8.58308e-029  
     length 4.67018   
     axis 180 30 90   XYZ
    dof rx ry rz
    limits (-90.0 60.0)
           (-90.0 90.0)
           (-90.0 90.0)
  end
  begin
     id 26 
     name rradius
     direction -1 -4.48958e-011 4.52548e-027   
     length 2.65534   
     axis 180 30 90   XYZ
    dof rx
    limits (-10.0 170.0)
  end
  begin
     id 27 
     name rwrist
     direction -1 -4.48977e-011 1.14952e-026   
     length 1.32767   
     axis -6.29373e-015 -90 -90   XYZ
    dof ry
    limits (-180.0 0.0)
  end
  begin
     id 28
     name rhand
     direction -1 -4.48924e-011 2.29804e-026   
     length 0.594069   
     axis -1.46689e-014 -90 -90   XYZ
    dof rx rz
    limits (-90.0 90.0)
           (-45.0 45.0)
  end
  begin
     id 29
     name rfingers
     direction -1 -4.48998e-011 4.59888e-026   
     length 0.478954   
     axis -2.93383e-014 -90 -90   XYZ
    dof rx
    limits (0.0 90.0)
  end
  begin
     id 30
     name rthumb
     direction -0.707107 -6.34933e-011 0.707107   
     length 0.687685   
     axis -90 -45 -5.69224e-014   XYZ
    dof rx rz
    limits (-45.0 45.0)
           (-45.0 45.0)
  end
:hierarchy
  begin
    root lhipjoint rhipjoint lowerback
    lhipjoint lfemur
    lfemur ltibia
    ltibia lfoot
    lfoot ltoes
    rhipjoint rfemur
    rfemur rtibia
    rtibia rfoot
    rfoot rtoes
    lowerback upperback
    upperback thorax
    thorax lowerneck lclavicle rclavicle
    lowerneck upperneck
    upperneck head
    lclavicle lhumerus
    lhumerus lradius
    lradius lwrist
    lwrist lhand lthumb
    lhand lfingers
    rclavicle rhumerus
    rhumerus rradius
    rradius rwrist
    rwrist rhand rthumb
    rhand rfingers
  end

#!OML:ASF E:\pregnant2\Project 1\Capture day 1\Session 1\pregnant2.ASF
:FULLY-SPECIFIED
:DEGREES
171
root 9.35461 10.8089 18.5511 33.4256 1.62664 -5.72245
lowerback -58.6373 3.14477 9.66533
upperback -10.7349 -2.63148 2.94936
thorax 8.88983 -1.11596 -2.08605
lowerneck -11.2399 -3.25855 -7.17386
upperneck 39.8377 -4.45735 2.98515
head 16.4384 -2.61879 1.83096
rclavicle 6.75868e-015 7.15625e-015
rhumerus -36.4251 35.45 -81.4357
rradius 71.4193
rwrist 23.94
rhand 16.871 -14.0284
rfingers 7.12502
rthumb 41.6098 -38.7479
lclavicle 6.75868e-015 7.15625e-015
lhumerus -43.8066 -4.13905 80.6656
lradius 72.4976
lwrist -37.0787
lhand 19.9917 25.6682
lfingers 7.12502
lthumb 44.5274 49.3515
rfemur -116.195 6.92303 26.2835
rtibia 80.8381
rfoot 3.86955 -11.2348
rtoes 9.67942
lfemur -123.156 -2.29328 -12.7723
ltibia 81.3823
lfoot 8.27851 4.87476
ltoes -6.77654
172
root 9.34669 10.8145 18.5586 33.5446 1.62641 -5.68292
lowerback -58.8213 3.10079 9.60531
upperback -10.7005 -2.67439 2.95965
thorax 8.94185 -1.13052 -2.06299
lowerneck -11.2504 -3.27385 -7.18088
upperneck 39.9069 -4.48754 2.99466
head 16.4814 -2.63253 1.8318
rclavicle -2.8625e-014 2.62396e-014
rhumerus -36.4129 35.5558 -81.5046
rradius 71.4156
rwrist 23.9248
rhand 16.8195 -14.0588
rfingers 7.12502
rthumb 41.5615 -38.7941
lclavicle -2.8625e-014 2.62396e-014
lhumerus -43.8887 -4.20395 80.6249
lradius 72.5975
lwrist -37.1158
lhand 19.9574 25.6152
lfingers 7.12502
lthumb 44.4954 49.3108
rfemur -116.291 6.98681 26.0843
rtibia 80.833
rfoot 3.83786 -11.3647
rtoes 9.68352
lfemur -123.531 -2.44114 -12.9866
ltibia 80.8593
lfoot 8.3798 4.5832
ltoes -7.05176
173
root 9.33853 10.8196 18.5647 33.6306 1.62544 -5.64392
lowerback -58.93 3.04752 9.54565
upperback -10.6864 -2.71745 2.97312
thorax 8.96739 -1.14698 -2.03899
lowerneck -11.2626 -3.28639 -7.17927
upperneck 39.9863 -4.51389 2.99805
head 16.5295 -2.6443 1.82914
rclavicle -2.0276e-014 3.57812e-014
rhumerus -36.3977 35.6565 -81.5758
rradius 71.4097
rwrist 23.911
rhand 16.7809 -14.0861
rfingers 7.12502
rthumb 41.5252 -38.8333
lclavicle -2.0276e-014 3.57812e-014
lhumerus -43.9771 -4.2754 80.5818
lradius 72.7002
lwrist -37.1449
lhand 19.9049 25.5546
lfingers 7.12502
lthumb 44.4465 49.269
rfemur -116.358 7.04483 25.9041
rtibia 80.8283
rfoot 3.80972 -11.4844
rtoes 9.70203
lfemur -123.893 -2.60022 -13.2195
ltibia 80.322
lfoot 8.50329 4.30628
ltoes -7.32331
174
root 9.33012 10.825 18.5703 33.7008 1.62357 -5.60856
lowerback -59.0094 2.9918 9.48892
upperback -10.6788 -2.76091 2.98747
thorax 8.98397 -1.16429 -2.01636
lowerneck -11.2748 -3.29644 -7.17284
upperneck 40.0729 -4.53814 3.00134
head 16.5813 -2.65457 1.82602
rclavicle 1.19271e-015 -1.66979e-014
rhumerus -36.378 35.7493 -81.649
rradius 71.4028
rwrist 23.8977
rhand 16.7579 -14.1145
rfingers 7.12502
rthumb 41.5037 -38.8687
lclavicle 1.19271e-015 -1.66979e-014
lhumerus -44.0706 -4.35213 80.5356
lradius 72.8077
lwrist -37.1575
lhand 19.8374 25.4915
lfingers 7.12502
lthumb 44.3836 49.2298
rfemur -116.405 7.10007 25.7448
rtibia 80.819
rfoot 3.78482 -11.5913
rtoes 9.72642
lfemur -124.253 -2.76639 -13.4644
ltibia 79.7693
lfoot 8.61305 4.04027
ltoes -7.53287
175
root 9.32179 10.831 18.5752 33.7548 1.60996 -5.57061
lowerback -59.0644 2.9408 9.4348
upperback -10.6751 -2.79669 2.99779
thorax 8.995 -1.17896 -1.99669
lowerneck -11.2839 -3.30425 -7.16331
upperneck 40.1653 -4.56125 3.00667
head 16.6356 -2.6637 1.82359
rclavicle -5.96354e-015 1.03368e-014
rhumerus -36.3577 35.8293 -81.7245
rradius 71.3962
rwrist 23.8836
rhand 16.7477 -14.1482
rfingers 7.12502
rthumb 41.4941 -38.9055
lclavicle -5.96354e-015 1.03368e-014
lhumerus -44.1684 -4.43522 80.4884
lradius 72.9188
lwrist -37.1483
lhand 19.7504 25.429
lfingers 7.12502
lthumb 44.3025 49.1981
rfemur -116.429 7.15521 25.5986
rtibia 80.8032
rfoot 3.76592 -11.6812
rtoes 9.74404
lfemur -124.607 -2.93701 -13.7286
ltibia 79.2018
lfoot 8.69169 3.78356
ltoes -7.70785
176
root 9.31343 10.8372 18.5794 33.7892 1.59178 -5.53553
lowerback -59.0867 2.89319 9.38629
upperback -10.6776 -2.8269 3.00488
thorax 8.99698 -1.19211 -1.98151
lowerneck -11.289 -3.30927 -7.15071
upperneck 40.2615 -4.58426 3.01886
head 16.6911 -2.67145 1.82383
rclavicle -4.6118e-014 2.54444e-014
rhumerus -36.3387 35.8933 -81.8049
rradius 71.3892
rwrist 23.8735
rhand 16.7381 -14.1791
rfingers 7.12502
rthumb 41.4851 -38.9394
lclavicle -4.6118e-014 2.54444e-014
lhumerus -44.2707 -4.52281 80.4367
lradius 73.0342
lwrist -37.1218
lhand 19.6592 25.3658
lfingers 7.12502
lthumb 44.2174 49.1671
rfemur -116.43 7.20869 25.4731
rtibia 80.782
rfoot 3.75069 -11.7562
rtoes 9.761
lfemur -124.952 -3.11352 -14.0067
ltibia 78.6222
lfoot 8.73663 3.52641
ltoes -7.85165
177
root 9.30507 10.8434 18.5828 33.8008 1.57193 -5.50115
lowerback -59.0697 2.84539 9.34079
upperback -10.6876 -2.8534 3.00985
thorax 8.98847 -1.20456 -1.96949
lowerneck -11.2913 -3.31218 -7.13456
upperneck 40.3604 -4.60722 3.03543
head 16.7476 -2.67804 1.82552
rclavicle -2.26615e-014 7.95139e-015
rhumerus -36.3204 35.943 -81.8879
rradius 71.382
rwrist 23.8663
rhand 16.7313 -14.2069
rfingers 7.12502
rthumb 41.4787 -38.9692
lclavicle -2.26615e-014 7.95139e-015
lhumerus -44.3733 -4.60778 80.3796
lradius 73.1501
lwrist -37.0835
lhand 19.5882 25.3073
lfingers 7.12502
lthumb 44.1513 49.1335
rfemur -116.407 7.25664 25.3678
rtibia 80.7575
rfoot 3.73695 -11.8172
rtoes 9.78407
lfemur -125.284 -3.29957 -14.2996
ltibia 78.0318
lfoot 8.72939 3.2551
ltoes -7.9636
178
root 9.2966 10.8497 18.5853 33.7906 1.55694 -5.47287
lowerback -59.0108 2.79689 9.30205
upperback -10.7078 -2.8786 3.0139
thorax 8.96588 -1.21754 -1.96196
lowerneck -11.2886 -3.31379 -7.1141
upperneck 40.4617 -4.63106 3.05436
head 16.8044 -2.68409 1.82748
rclavicle -1.78906e-014 2.54444e-014
rhumerus -36.3059 35.9784 -81.9774
rradius 71.3726
rwrist 23.8693
rhand 16.7169 -14.228
rfingers 7.12502
rthumb 41.4652 -38.9947
lclavicle -1.78906e-014 2.54444e-014
lhumerus -44.4753 -4.68335 80.3141
lradius 73.2626
lwrist -37.0377
lhand 19.5432 25.2519
lfingers 7.12502
lthumb 44.1093 49.0939
rfemur -116.359 7.29885 25.2897
rtibia 80.7306
rfoot 3.72186 -11.867
rtoes 9.80269
lfemur -125.604 -3.496 -14.5993
ltibia 77.4311
lfoot 8.71858 2.96909
ltoes -8.11807
179
root 9.28801 10.856 18.5871 33.7661 1.55311 -5.45056
lowerback -58.9264 2.74427 9.26754
upperback -10.7343 -2.90756 3.01965
thorax 8.93458 -1.23267 -1.95669
lowerneck -11.2833 -3.31359 -7.09287
upperneck 40.5616 -4.65439 3.07798
head 16.86 -2.68912 1.83157
rclavicle 9.93923e-015 1.66979e-014
rhumerus -36.2913 36.0043 -82.0672
rradius 71.3614
rwrist 23.8747
rhand 16.704 -14.2442
rfingers 7.12502
rthumb 41.4531 -39.0148
lclavicle 9.93923e-015 1.66979e-014
lhumerus -44.5735 -4.74079 80.2413
lradius 73.3702
lwrist -36.9854
lhand 19.5375 25.2061
lfingers 7.12502
lthumb 44.1039 49.0502
rfemur -116.294 7.33157 25.2389
rtibia 80.702
rfoot 3.70515 -11.9084
rtoes 9.82237
lfemur -125.916 -3.70812 -14.9054
ltibia 76.8192
lfoot 8.72627 2.65673
ltoes -8.21106
180
root 9.27919 10.8624 18.5885 33.7294 1.55746 -5.43756
lowerback -58.8157 2.68813 9.2392
upperback -10.7681 -2.94112 3.02953
thorax 8.89309 -1.25034 -1.95215
lowerneck -11.2813 -3.31148 -7.0647
upperneck 40.6672 -4.67476 3.09637
head 16.9191 -2.69256 1.83263
rclavicle -9.42239e-014 5.32743e-014
rhumerus -36.2752 36.0274 -82.159
rradius 71.346
rwrist 23.8879
rhand 16.6877 -14.258
rfingers 7.12502
rthumb 41.4378 -39.0336
lclavicle -9.42239e-014 5.32743e-014
lhumerus -44.6665 -4.77288 80.1598
lradius 73.47
lwrist -36.9254
lhand 19.5628 25.1738
lfingers 7.12502
lthumb 44.1276 49.009
rfemur -116.214 7.35959 25.2179
rtibia 80.6707
rfoot 3.68476 -11.9401
rtoes 9.84804
lfemur -126.222 -3.93012 -15.213
ltibia 76.1978
lfoot 8.72193 2.34385
ltoes -8.37039
181
root 9.27021 10.8689 18.5893 33.6848 1.57014 -5.43104
lowerback -58.6899 2.62685 9.2128
upperback -10.8059 -2.9803 3.04413
thorax 8.84618 -1.27058 -1.94603
lowerneck -11.284 -3.30833 -7.03088
upperneck 40.7773 -4.69218 3.10768
head 16.9816 -2.69484 1.83002
rclavicle -1.82882e-014 1.66979e-014
rhumerus -36.2553 36.0493 -82.248
rradius 71.3264
rwrist 23.9049
rhand 16.6702 -14.2719
rfingers 7.12502
rthumb 41.4214 -39.0528
lclavicle -1.82882e-014 1.66979e-014
lhumerus -44.7509 -4.77951 80.074
lradius 73.5609
lwrist -36.8542
lhand 19.6091 25.164
lfingers 7.12502
lthumb 44.1707 48.9829
rfemur -116.12 7.38149 25.2222
rtibia 80.6358
rfoot 3.66152 -11.9639
rtoes 9.87454
lfemur -126.525 -4.16366 -15.5227
ltibia 75.567
lfoot 8.72965 2.01525
ltoes -8.53592
